<mxfile host="app.diagrams.net" agent="Mozilla/5.0 (Windows NT 10.0; Win64; x64) AppleWebKit/537.36 (KHTML, like Gecko) Chrome/140.0.0.0 Safari/537.36" version="28.2.1">
  <diagram id="0cq1GIurgwOReHTTdMfr" name="ページ1">
    <mxGraphModel dx="786" dy="498" grid="1" gridSize="10" guides="1" tooltips="1" connect="1" arrows="1" fold="1" page="1" pageScale="1" pageWidth="827" pageHeight="1169" math="0" shadow="0">
      <root>
        <mxCell id="0" />
        <mxCell id="1" parent="0" />
        <mxCell id="7GS6rtXzwx-sRDdUkwyX-10" value="ユーザー" style="shape=umlActor;verticalLabelPosition=bottom;verticalAlign=top;html=1;" vertex="1" parent="1">
          <mxGeometry x="30" y="110" width="50" height="90" as="geometry" />
        </mxCell>
        <mxCell id="7GS6rtXzwx-sRDdUkwyX-11" value="" style="rounded=0;whiteSpace=wrap;html=1;fillColor=none;strokeColor=#000000;" vertex="1" parent="1">
          <mxGeometry x="160" y="30" width="280" height="210" as="geometry" />
        </mxCell>
        <mxCell id="7GS6rtXzwx-sRDdUkwyX-12" value="システム内部" style="rounded=0;whiteSpace=wrap;html=1;opacity=0;" vertex="1" parent="1">
          <mxGeometry x="240" y="30" width="120" height="60" as="geometry" />
        </mxCell>
        <mxCell id="7GS6rtXzwx-sRDdUkwyX-13" value="学生情報を登録する" style="ellipse;whiteSpace=wrap;html=1;shadow=0;perimeterSpacing=7;fillColor=none;" vertex="1" parent="1">
          <mxGeometry x="240" y="90" width="160" height="50" as="geometry" />
        </mxCell>
        <mxCell id="7GS6rtXzwx-sRDdUkwyX-14" value="学術論文を登録する" style="ellipse;whiteSpace=wrap;html=1;shadow=0;perimeterSpacing=7;fillColor=none;" vertex="1" parent="1">
          <mxGeometry x="240" y="170" width="160" height="50" as="geometry" />
        </mxCell>
        <mxCell id="7GS6rtXzwx-sRDdUkwyX-15" value="" style="endArrow=none;html=1;rounded=0;entryX=0;entryY=0.5;entryDx=0;entryDy=0;" edge="1" parent="1" target="7GS6rtXzwx-sRDdUkwyX-13">
          <mxGeometry width="50" height="50" relative="1" as="geometry">
            <mxPoint x="100" y="150" as="sourcePoint" />
            <mxPoint x="300" y="320" as="targetPoint" />
          </mxGeometry>
        </mxCell>
        <mxCell id="7GS6rtXzwx-sRDdUkwyX-16" value="" style="endArrow=none;html=1;rounded=0;entryX=0;entryY=0.5;entryDx=0;entryDy=0;" edge="1" parent="1" target="7GS6rtXzwx-sRDdUkwyX-14">
          <mxGeometry width="50" height="50" relative="1" as="geometry">
            <mxPoint x="100" y="150" as="sourcePoint" />
            <mxPoint x="263" y="250" as="targetPoint" />
          </mxGeometry>
        </mxCell>
      </root>
    </mxGraphModel>
  </diagram>
</mxfile>
